# xmcd
# 
# Track frame offsets:
#     150
#     26686
#     50470
#     70465
#     91707
#     106706
#     126735
#     154964
#     176092
#     199431
#     221237
#     240013
#     264991
#     292535
# 
# Disc length: 3988
# 
# Revision: 13
# Processed by: cddbd v1.5.2PL0 Copyright (c) Steve Scherf et al.
# Submitted via: fre:ac v1.0.17
# 
DISCID=c60f920e
DTITLE=Keith Urban - Love, Pain and The Whole Crazy Thing
DYEAR=2006
DGENRE=Country
TTITLE0=Once In A Lifetime
TTITLE1=Shine
TTITLE2=I Told You So
TTITLE3=I Can't Stop Loving You
TTITLE4=Won't Let You Down
TTITLE5=Faster Car
TTITLE6=Stupid Boy
TTITLE7=Used To The Pain
TTITLE8=Raise The Barn (with Ronnie Dunn)
TTITLE9=God Made Woman
TTITLE10=Tu Compañía
TTITLE11=Everybody
TTITLE12=Got It Right This Time
TTITLE13=Data Track
EXTD=YEAR: 2006
EXTT0=
EXTT1=
EXTT2=
EXTT3=
EXTT4=
EXTT5=
EXTT6=
EXTT7=
EXTT8=
EXTT9=
EXTT10=
EXTT11=
EXTT12=
EXTT13=
PLAYORDER=
